# xmcd
#
# Track frame offsets: 
#        150
#        6390
#        19326
#        31100
#        41605
#        50727
#        62057
#        73459
#        87625
#        100163
#        109702
#        118927
#        128630
#        141490
#        153147
#        163689
#        173095
#        183194
#
# Disc length: 2594 seconds
#
# Revision: 0
# Processed by: cddbd v1.5.2PL0 Copyright (c) Steve Scherf et al.
# Submitted via: ExactAudioCopy v1.0b1
#
DISCID=fe0a2012
DTITLE=Schovanky - Den přeslavný
DYEAR=1995
DGENRE=Chorus
TTITLE0=Den přeslavný jest k nám přišel
TTITLE1=Chtíc, aby spal
TTITLE2=Adeste Fideles
TTITLE3=Veselé Vánoční hody
TTITLE4=Obloha se třpytí
TTITLE5=Nová hvězda
TTITLE6=Noel (The First Noel)
TTITLE7=Záře v království půlnočním
TTITLE8=Tichá noc, svatá noc
TTITLE9=Jak jsi krásné, Jezulátko
TTITLE10=Slyšte, slyšte pastuškové
TTITLE11=Dáváme zprávu
TTITLE12=Věčný oheň
TTITLE13=Hajej, nynej
TTITLE14=Nesem vám noviny
TTITLE15=Pod hvězdnou oblohou
TTITLE16=Hříbě s rolničkou
TTITLE17=Narodil se Kristus Pán
EXTD=
EXTT0=
EXTT1=
EXTT2=
EXTT3=
EXTT4=
EXTT5=
EXTT6=
EXTT7=
EXTT8=
EXTT9=
EXTT10=
EXTT11=
EXTT12=
EXTT13=
EXTT14=
EXTT15=
EXTT16=
EXTT17=
PLAYORDER=
